# xmcd
#
# Track frame offsets: 
#        150
#        12650
#        22560
#        33822
#        45552
#        56300
#        66552
#        79522
#        93822
#        107547
#        118897
#        133572
#        147155
#        159365
#        172790
#
# Disc length: 2489 seconds
#
# Revision: 1
# Processed by: cddbd v1.5.2PL0 Copyright (c) Steve Scherf et al.
# Submitted via: ExactAudioCopy v0.99pb5
#
DISCID=ad09b70f
DTITLE=Various Artist - Classic Country Vol. 17 The '60s Treasures Disc 2
DYEAR=2000
DGENRE=Country
TTITLE0=Wynn Stewart - Wishful Thinking
TTITLE1=Buck Owens - Before You Go
TTITLE2=Jerry Lee Lewis - She Still Comes Around (To Love What's Left 
TTITLE2=Of Me)
TTITLE3=Roy Drusky And Priscilla Mitchell - Yes Mr. Peters
TTITLE4=Browns - The Old Lamplighter
TTITLE5=Wilburn Brothers - Roll Muddy River
TTITLE6=Billy Walker - Cross The Brazos At Waco
TTITLE7=Tex Ritter - I Dreamed Of A Hill-Billy Heaven
TTITLE8=Tom T. Hall - Ballad Of Forty Dollars
TTITLE9=Faron Young - Wine Me Up
TTITLE10=Jeannie Seely - Don't Touch Me
TTITLE11=Stonewall Jackson - Don't Be Angry
TTITLE12=Burl Ives - Funny Way Of Laughin'
TTITLE13=Glen Campbell - Gentle On My Mind
TTITLE14=Billy Edd Wheeler - Ode To The Little Brown Shack Out Back
EXTD=Part of a Time Life collection
EXTT0=
EXTT1=
EXTT2=
EXTT3=
EXTT4=
EXTT5=
EXTT6=
EXTT7=
EXTT8=
EXTT9=
EXTT10=
EXTT11=
EXTT12=
EXTT13=
EXTT14=
PLAYORDER=
